Coordinates
version=1
nRows=13
nColumns=40
inDegrees=yes

Units are S.I. units (second, meters, Newtons, ...)
Angles are in degrees.

endheader
time	pelvis_tilt	pelvis_list	pelvis_rotation	pelvis_tx	pelvis_ty	pelvis_tz	hip_flexion_r	hip_adduction_r	hip_rotation_r	knee_angle_r	knee_angle_r_beta	ankle_angle_r	subtalar_angle_r	mtp_angle_r	hip_flexion_l	hip_adduction_l	hip_rotation_l	knee_angle_l	knee_angle_l_beta	ankle_angle_l	subtalar_angle_l	mtp_angle_l	lumbar_extension	lumbar_bending	lumbar_rotation	arm_flex_r	arm_add_r	arm_rot_r	elbow_flex_r	pro_sup_r	wrist_flex_r	wrist_dev_r	arm_flex_l	arm_add_l	arm_rot_l	elbow_flex_l	pro_sup_l	wrist_flex_l	wrist_dev_l
     12.06000000	     -5.18467401	     -3.91346097	     -2.04988243	      1.03964016	      0.92922684	      0.39861005	     33.19721005	    -11.32981320	     -8.44439346	     70.37094319	     70.37094319	     -1.51066777	    -19.45147035	     15.68677627	     15.34518687	     -3.82697669	     -5.81664630	     23.26313635	     23.26313635	     14.38701679	    -13.82975169	      3.09269600	    -12.02419569	      4.91364571	      2.34008705	     13.91716526	    -12.44621565	     -5.10644847	     69.03925431	     45.34986142	      0.00000000	      0.00000000	      2.65362813	    -12.27650119	     -1.43172785	     46.21208565	     45.55306414	      0.00000000	      0.00000000
     12.07171429	     -5.18871421	     -4.20718380	     -2.35680628	      1.03832483	      0.93006646	      0.39916994	     34.60548450	    -10.41462895	     -8.35302570	     69.00671023	     69.00671023	     -1.34617970	    -19.29191301	     15.30096458	     14.44126010	     -4.17520367	     -6.04440222	     22.64877509	     22.64877509	     14.61780643	    -13.70003544	      3.08376786	    -12.21427156	      5.20731373	      2.64244728	     11.47206612	    -12.99160645	     -4.86584195	     66.30841080	     45.42311299	      0.00000000	      0.00000000	      4.67385107	    -12.75430930	     -1.62806193	     47.32964415	     45.61474741	      0.00000000	      0.00000000
     12.08342857	     -5.12386189	     -4.47323353	     -2.70705229	      1.03700715	      0.93089816	      0.39981744	     35.70852175	     -9.50937523	     -8.24921605	     67.26629337	     67.26629337	     -2.00941897	    -19.13536466	     12.50785308	     13.49307113	     -4.60563952	     -6.74710810	     22.11219393	     22.11219393	     14.78844145	    -12.92707460	      2.31130825	    -12.40394299	      5.41203134	      2.48243173	     10.92571672	    -12.91621254	     -4.65388959	     59.34151751	     45.64714975	      0.00000000	      0.00000000	      6.46216580	    -13.67852867	     -0.95712275	     48.35904702	     45.63963293	      0.00000000	      0.00000000
     12.09514286	     -4.99769628	     -4.74945023	     -3.04037611	      1.03579007	      0.93181036	      0.40044584	     36.60809679	     -8.54255452	     -8.10846929	     65.30077391	     65.30077391	     -2.21292924	    -18.84664008	     11.54109762	     12.41104787	     -4.94862833	     -7.18168668	     21.43977658	     21.43977658	     15.01266728	    -12.53097209	      2.14566226	    -12.80755378	      5.66445604	      2.98135705	      8.88896202	    -13.49854239	     -4.33032733	     56.15373434	     45.73302248	      0.00000000	      0.00000000	      8.44468378	    -14.14412227	     -1.14640573	     49.92405419	     45.71209676	      0.00000000	      0.00000000
     12.10685714	     -4.92133222	     -4.98542312	     -3.32427846	      1.03458886	      0.93254954	      0.40099799	     37.37249616	     -7.66415083	     -7.99273460	     63.02411042	     63.02411042	     -2.56057621	    -18.31698342	     10.13104879	     11.42573520	     -5.26306370	     -7.68895831	     20.82241128	     20.82241128	     15.21284966	    -11.90925117	      1.80986751	    -13.10571692	      5.91213021	      3.30194127	      7.26839160	    -13.88840024	     -4.04428706	     52.16677393	     45.85033153	      0.00000000	      0.00000000	     10.32005923	    -14.60293097	     -1.11080539	     51.37819397	     45.76289231	      0.00000000	      0.00000000
     12.11857143	     -4.94510382	     -5.13614517	     -3.50313099	      1.03347832	      0.93298301	      0.40145809	     37.91130080	     -7.03509051	     -8.11224089	     60.20002381	     60.20002381	     -3.93476489	    -17.90982996	      5.25442620	     10.61460402	     -5.49756732	     -8.25433148	     20.27858034	     20.27858034	     15.22753532	    -11.24505385	      0.87213045	    -13.10581690	      6.06675599	      2.25762855	      7.88053832	    -13.26496806	     -3.75471997	     44.21425370	     46.10531441	      0.00000000	      0.00000000	     11.23289066	    -16.05838398	     -0.40269948	     53.01957119	     45.81114950	      0.00000000	      0.00000000
     12.13028571	     -4.91581714	     -5.22117214	     -3.70269802	      1.03243474	      0.93341110	      0.40188926	     38.40538198	     -6.38800013	     -8.01283278	     57.34576669	     57.34576669	     -3.94134319	    -16.90484511	      4.65402416	      9.68735504	     -5.57497985	     -8.58428788	     19.62838746	     19.62838746	     15.38777604	    -10.90139315	      0.78816268	    -13.35534034	      6.19782081	      2.59678420	      5.75452420	    -13.73989246	     -3.59882327	     42.00722179	     46.16034951	      0.00000000	      0.00000000	     13.03938466	    -16.40751295	     -0.80066034	     54.70131025	     45.89970705	      0.00000000	      0.00000000
     12.14200000	     -4.95974132	     -5.25685647	     -3.81131700	      1.03149855	      0.93354624	      0.40229702	     38.65720531	     -5.91127418	     -8.12357569	     53.93451262	     53.93451262	     -4.82575966	    -16.05219270	      1.24595667	      8.89213335	     -5.64195040	     -9.03359070	     19.04764554	     19.04764554	     15.41115488	    -10.28905675	      0.03801815	    -13.39558100	      6.26287086	      2.06745012	      5.17468360	    -13.57548027	     -3.72805658	     36.80735922	     46.32882852	      0.00000000	      0.00000000	     14.05060165	    -17.44302321	     -0.64025457	     57.01870971	     46.01705579	      0.00000000	      0.00000000
     12.15371429	     -5.00024721	     -5.23976485	     -3.87730753	      1.03070981	      0.93361025	      0.40260627	     38.80587148	     -5.52081038	     -8.25518441	     50.39786100	     50.39786100	     -4.59947541	    -14.55443592	      1.08249085	      8.06266718	     -5.58404201	     -9.25895511	     18.40754951	     18.40754951	     15.57421613	     -9.90343890	     -0.03808043	    -13.47107283	      6.35453023	      2.16838678	      2.94819685	    -13.97108607	     -3.70291681	     35.24596675	     46.36724401	      0.00000000	      0.00000000	     15.68891610	    -17.74578146	     -1.00373706	     58.56688353	     46.09395636	      0.00000000	      0.00000000
     12.16542857	     -5.04393842	     -5.13770185	     -3.90804589	      1.03009593	      0.93341683	      0.40298384	     38.76177335	     -5.23537381	     -8.43638443	     46.57347075	     46.57347075	     -4.35823222	    -13.00138429	      0.72692986	      7.23238704	     -5.45249456	     -9.56233530	     17.76724582	     17.76724582	     15.74438098	     -9.35737624	     -0.28306748	    -13.50543794	      6.30769270	      2.27243989	      0.75330611	    -14.26114385	     -3.73878008	     33.43114497	     46.41974384	      0.00000000	      0.00000000	     17.27415163	    -18.11885084	     -1.20005835	     60.46288862	     46.16414478	      0.00000000	      0.00000000
     12.17714286	     -5.12960582	     -5.02804037	     -3.86992144	      1.02968168	      0.93298956	      0.40333405	     38.51410508	     -4.99639061	     -8.78537807	     42.42854794	     42.42854794	     -4.13575218	    -11.44531156	      0.56611340	      6.44373662	     -5.30547172	     -9.79953015	     17.12219116	     17.12219116	     15.91209674	     -8.79044725	     -0.56472621	    -13.42407603	      6.30843269	      2.16308418	     -1.40476291	    -14.47076865	     -3.82873410	     31.85798940	     46.46804433	      0.00000000	      0.00000000	     18.66112978	    -18.57208041	     -1.32939222	     62.32929751	     46.22441108	      0.00000000	      0.00000000
     12.18885714	     -5.16557462	     -4.77785828	     -3.83052186	      1.02956230	      0.93225158	      0.40385601	     38.02328821	     -4.86805883	     -9.14763386	     38.07738276	     38.07738276	     -4.23520928	    -10.01280526	     -0.66557991	      5.53643034	     -5.03753656	    -10.26897419	     16.38047888	     16.38047888	     15.92788093	     -7.96471657	     -1.53575037	    -13.37927948	      6.07268101	      1.95258571	     -3.24208641	    -14.41881552	     -4.56305362	     29.60098651	     46.58040137	      0.00000000	      0.00000000	     19.47040923	    -19.49851879	     -0.94997766	     65.88841061	     46.31481836	      0.00000000	      0.00000000
     12.20057143	     -5.19865414	     -4.60833247	     -3.69942328	      1.02968933	      0.93136466	      0.40431884	     37.30809259	     -4.66503883	     -9.66691491	     33.61478926	     33.61478926	     -3.96936007	     -8.54279564	     -0.14243775	      4.65850804	     -4.80554763	    -10.37358626	     15.72503992	     15.72503992	     16.18182049	     -7.48285464	     -1.77042919	    -13.18353067	      6.04458642	      1.68225094	     -5.46918569	    -14.57256675	     -4.69931478	     28.60412317	     46.60902125	      0.00000000	      0.00000000	     20.78231585	    -19.88415916	     -1.26302007	     67.41152970	     46.38138643	      0.00000000	      0.00000000
